<svg xmlns="http://www.w3.org/2000/svg" viewBox="0 0 36 36">
  <path fill="#CCD6DD"
    d="M12 7.607L3 5.196c-1.657-.444-3 .539-3 2.197v20c0 1.656 1.343 3.359 3 3.804l9 2.411V7.607zm12 22.786l9 2.411c1.656.443 3-.54 3-2.196v-20c0-1.657-1.344-3.36-3-3.804l-9-2.411v26z" />
  <path fill="#E1E8ED" d="M24 30.392l-12 3.215v-26l12-3.215z" />
  <path fill="#55ACEE"
    d="M12 9.607L4 7.463c-1.104-.296-2 .36-2 1.464v18c0 1.104.896 2.24 2 2.535l8 2.145v-22zm20-1.072l-8-2.144v22l8 2.144c1.104.296 2-.359 2-1.465v-18c0-1.103-.896-2.239-2-2.535z" />
  <path fill="#88C9F9" d="M24 28.392l-12 3.215v-22l12-3.215z" />
  <path fill="#5C913B"
    d="M12 21.506c-.268.006-.595.104-.845.145-.436.073-.329.517-.463.443-.135-.074-.475-.265-.812-.658-.337-.394.25-.477.418-.622.168-.145-.316-.172-.485-.332-.169-.159-.471.104-.739-.276-.27-.376-.101-.79-.133-1.18-.034-.39.436-.341.739-.334.303.003.538.144.538.602 0 .456.37.708.269.146-.101-.561.101-.657.235-.89.134-.23.37-.55.672-1.04.221-.358.389-.283.606-.164v-3.345c-.055-.044-.11-.09-.165-.113-.303-.132.096.753-.139 1.109-.237.356-.598.193-.97.094-.369-.099-.713-.545-.443-1.007.268-.462.782-.268 1.051-.653.269-.385-.957-.672-1.394-.941-.438-.271-.963-.409-1.4-.146-.437.264-1.373.133-1.743.186-.37.054-.436-.369-.503-.693-.067-.322-.653-.329-1.257-.338-.606-.01-1.741.281-1.547 1.759.068.514.605.124.707.036.101-.088.605.2.671.637.068.439.035.887-.099 1.232-.137.345.336 1.006.604 1.612.269.605.573.686.707.723.135.036.908.587.875.996-.033.411.706.991 1.009 1.34.303.35.494.662.887.846.393.183.852 1.035 1.054 1.165.155.1.418.451.576.58-.208.242-.612.748-.612 1.029 0 .383.44 1.103.608 1.3.167.196.65.442.751.85.101.407-.07 1.646-.372 1.907-.304.262-.414 1.043-.414 1.043s.107.293.465.124c.309-.144.776-.566 1.094-.801v-6.371z" />
  <path fill="#77B255"
    d="M12.268 17.413c-.1.016-.187.012-.268.011v-3.345c.254.065.512.317.707.736.234.509.604.066.739.374.134.308.875.758.505.742-.371-.015-.741.008-.841.454-.102.448.168.794-.102.828-.27.033-.37.142-.74.2zm2.59 5.558c-.436-.074-.359-.023-.628-.599-.268-.577-.431-.743-1.036-.656-.605.087-.583.136-.751-.163-.072-.128-.241-.082-.443.031v6.37c.09-.114.17-.211.228-.267.505-.477.996-1.026 1.466-1.646.47-.621.3-.924.535-1.481.236-.558.541-.617.944-1.145.405-.53.122-.368-.315-.444zM24 15.731V9.417c-.04.004-.068.012-.11.015-.209.011-.482.135-.779.32-.024-.005-.046-.016-.07-.021-.896-.175-1.312 1.205-2.039 1.152-.729-.053-1.7-.344-2.332.514-.631.857-.777 1.53 0 1.294s1.312-1.425 1.7-1.089c.388.336.29.721-.632 1.105-.922.385-1.918.817-2.452.96-.534.143-.655.534-.292.822.364.288-.219.471-.826 1.02-.607.547.146.512.656.705.51.193.898-.323 1.117-.932.217-.608 1.158-1.521 1.55-1.544.392-.023.392.197.318.602-.013.071.001.103.011.138-.17.54-.31 1.03-.365 1.306-.026.135-.031.351-.027.595-.086.004-.183.021-.248.001-.438-.129-1.434-.22-1.701.043-.267.265-.412.502-.728.723-.317.219-1.603 1.224-1.627 2.084-.025.859-.049 1.83.461 1.721.51-.109 1.749-.826 2.137-1.288.387-.463.921-.522 1.092-.156.17.369.048.649-.12 1.354-.171.708.11.963.381 1.468.273.504.491.775.491 1.189 0 .412.389.723.97-.123.188-.27.367-.606.536-.957.409-.469.768-.923.758-1.096-.016-.281-.021-.434-.024-.624l.091-.22c.127-.293.241-.746.362-1.155.007-.01.013-.017.02-.024.237-.337.185-.353.58-.756.264-.27.254-.512.214-.678.105-.175.134-.28-.033-.235l-.016.004c-.002 0-.005.019-.006.014-.023-.149-.206.003-.501.148-.284.008-.566-.066-.668-.368-.133-.396-.602-.996-.639-1.336.003-.041.005-.077.01-.124.014-.036.033-.066.069-.088.038-.022.075-.03.112-.035.041.111.075.279.086.464.026.477.394.196.394.498 0 .303.53.492.661.548.037.016.094-.027.159-.098.031.011.06.033.093.037.292.031.922-.984 1.117-1.164.102-.095.104-.269.033-.394l.056-.025z" />
  <path fill="#5C913B"
    d="M27.634 20.221c-.053.44.184.201.606.705.423.508-.104.394-.289.316-.185-.08-.37-.131-.579-.518-.213-.391 0-.695 0-1.027 0 0 .316.084.262.524zm.362-.901c.389.166.114-.482.244-.841.132-.356.316-.368.555-.363.236.002.422-.191.581-.389.157-.199.448-.454.422-.733-.026-.279-.104-.482-.212-.843-.105-.36.316-.368.502-.711.184-.343 0 0 .421-.008.422-.008.238-.058.316-.218.08-.159.133-.327.054-.68-.078-.353-.37-.1-.66-.177-.289-.077.106-.425.132-.78.026-.356.397-.165.661-.125.263.039.342.484.421.597.081.112.895-.365 1.108-.641.211-.275-.186-.291-.079-.403.106-.111-.632-.337-.925-.469-.289-.133-1.028-.367-1.318-.649-.289-.283-1.396-.426-1.688-.337-.291.086-.476-.143-.606-.406-.131-.262-.686-.297-.844-.467-.158-.17-.316.127-.529.16-.21.035-.289.043-.554-.209-.263-.252.08-.371-.288-.621-.355-.238-.813-.182-1.71-.591v6.314c.157.014.309.036.364.051.131.035.448.573.448.784 0 .211.158.828.291 1.195.131.366.42.506.686.818.264.312.394.137.394.137s-.105-.544-.105-.965c0-.424.316-.701.316-.701s.5.558.528.685c.026.128.421.656.449.876.026.219.237.546.625.71zm2.092-2.068c.184.08.976.171.554-.334-.423-.506-.106-.299-.053-.738.053-.44-.264-.524-.264-.524 0 .332-.211.638 0 1.026.21.39-.423.49-.237.57zm2.004 5.371c-.131-.217-.421-.385-.738-.461-.315-.076-.29-.48-.606-.533-.316-.055-.544-.389-.686-.512-.312-.266-.106.209 0 .699.106.488.501.246.869.586.369.34.397.016.74.229.342.211.475.52.804.578.329.059-.25-.369-.383-.586zm-3.088-1.432c.262.402.159.043.504-.016.343-.059-.291-.561-.502-.799-.211-.238-.42-.301-.605.049-.21.399.342.364.603.766zm2.403 2.579c-.133-.338-.518-.713-.675-.91-.159-.193-.407-.312-.618-.279-.212.031-.343-.092-.448-.361-.106-.266-.29-.233-.449-.244-.157-.012-.791.119-1.161.23-.368.113-.537.252-.778.457-.382.32-.17.105 0 .424.168.318-.187 1.066-.213 1.543-.027.477.676.031.939.039.264.012.186-.189.396-.314.212-.125.349-.129.579.172.233.305.537.611.537.883 0 .27.834.947 1.151.852.316-.098.501-.408.791-.635.291-.225.186-.824.264-1.168.081-.344-.185-.354-.315-.689z" />
  <!-- leaflet logo -->
  <g transform="scale(0.03) translate(200, 950)">
  <path fill="#6f6f6e"
    d="M138.146 154.633c-16.973 17.26-34.34 25.89-52.1 25.89-5.156 0-10.116-.665-14.878-1.99-4.764-1.323-10.564-3.56-17.402-6.712-6.84-3.15-12.874-5.44-18.1-6.87-9.67 10.6-18.407 15.9-26.212 15.9-2.723 0-4.98-.89-6.768-2.68C.896 176.37 0 174.19 0 171.61c0-5.44 2.667-10.225 8.003-14.34 5.334-4.12 12.872-6.967 22.612-8.54 4.082-5.59 6.695-11.05 7.842-16.386 1.145-5.33 2.04-14.12 2.686-26.37 1.217-25.203 7.966-44.952 20.25-59.24 12.28-14.286 25.62-21.43 40.014-21.43 9.883 0 17.993 3.134 24.33 9.4 6.34 6.267 9.508 14.27 9.508 24.01 0 11.242-3.33 21.09-9.99 29.54s-14.324 12.675-22.988 12.675c-4.512 0-8.057-1.24-10.635-3.71-2.578-2.47-3.867-5.86-3.867-10.15 0-2.22.43-4.8 1.29-7.74 1.933 2.22 4.366 3.33 7.304 3.33 4.86 0 9.13-2.9 12.78-8.7 3.65-5.8 5.48-12.71 5.48-20.74 0-6.16-1.4-11.01-4.19-14.56-2.79-3.55-6.62-5.32-11.48-5.32-5.87 0-10.43 2.11-13.69 6.34s-5.53 9.272-6.82 15.15c-1.29 5.87-2.66 15.36-4.12 28.47-1.46 13.1-3.89 24.72-7.3 34.852-3.42 10.13-9.79 20.065-19.13 29.8 6.09-.43 11.37-.07 15.84 1.08 4.47 1.143 10.88 3.31 19.23 6.495 8.34 3.19 15.52 4.78 21.53 4.78 11.74 0 22.95-6.01 33.62-18.04v12.35zm80.244 0c-9.096 8.953-17.26 15.56-24.492 19.818-7.234 4.26-15.22 6.4-23.955 6.4-9.74 0-17.6-3.11-23.58-9.34-5.98-6.23-8.97-14.43-8.97-24.6 0-15.18 5.265-28.91 15.792-41.19 10.527-12.28 22.2-18.42 35.02-18.42 6.66 0 11.994 1.72 16.006 5.16 4.01 3.44 6.02 7.95 6.02 13.54 0 14.83-15.75 26.86-47.26 36.1 2.87 13.97 10.35 20.95 22.45 20.95 4.73 0 9.24-1.27 13.54-3.81 4.3-2.54 10.78-8.18 19.45-16.92v12.36zM162.1 134.76c18.333-5.156 27.5-14.68 27.5-28.575 0-6.875-2.507-10.313-7.52-10.313-4.726 0-9.237 3.6-13.534 10.796-4.297 7.197-6.445 16.562-6.445 28.092zm171.017 19.873c-11.46 10.887-19.658 17.977-24.6 21.27-4.942 3.293-9.668 4.94-14.18 4.94-11.316 0-16.65-9.99-16.006-29.97-7.16 10.242-13.76 17.797-19.81 22.666-6.05 4.86-12.3 7.3-18.74 7.3-6.3 0-11.65-2.96-16.06-8.87-4.4-5.91-6.6-13.16-6.6-21.75 0-10.75 2.96-20.99 8.87-30.73 5.91-9.74 13.48-17.62 22.72-23.64 9.24-6.02 17.4-9.03 24.49-9.03 8.95 0 15.22 4.12 18.8 12.35l21.96-12.14h6.03l-9.47 31.48c-4.88 15.83-7.32 26.68-7.32 32.55 0 6.15 2.18 9.23 6.55 9.23 2.79 0 5.87-1.49 9.23-4.46 3.36-2.97 8.09-7.5 14.17-13.59v12.36zm-78.633 5.908c7.16 0 13.91-6.1 20.25-18.31 6.337-12.21 9.506-23.47 9.506-33.78 0-4.01-.896-7.14-2.686-9.4-1.79-2.25-4.19-3.38-7.197-3.38-7.162 0-13.948 6.09-20.356 18.27-6.41 12.18-9.61 23.39-9.61 33.63 0 3.87.95 7 2.85 9.4 1.9 2.4 4.31 3.6 7.25 3.6zm165.752-5.9c-7.44 8.38-14.808 14.84-22.104 19.39-7.296 4.55-13.806 6.82-19.53 6.82-2.718 0-6.437-1.03-11.157-3.1-3.02 15.75-5.682 32.76-7.983 51.01-7.456 1.01-16.417 2.55-26.882 4.63 2.29-19.62 6.266-45.08 11.922-76.37-.79-1.36-2.186-4.79-4.19-10.31l-7.195 7.95h-2.47v-9.67l20.478-21.23c3.892-19.21 7.056-33.12 9.492-41.71 2.434-8.59 5.836-18.1 10.205-28.52 4.367-10.42 7.125-16.4 8.27-17.94 1.146-1.54 3.922-3.01 8.326-4.4 4.404-1.39 9.112-2.72 14.126-3.97 5.012-1.25 7.697-1.88 8.057-1.88 2.73 0 4.95 1.77 6.66 5.32 1.72 3.54 2.58 8.21 2.58 14.007 0 10.02-2.64 19.677-7.93 28.977s-15.29 20.74-30 34.334l-9.03 44.9c3.5 7.51 8.76 11.267 15.76 11.267 10.01 0 20.88-7.27 32.6-21.81v12.357zM384.16 93.41c8.372-7.305 14.937-15.164 19.698-23.58 4.76-8.415 7.14-16.168 7.14-23.26 0-3.007-.554-5.478-1.66-7.41-1.107-1.935-2.48-2.9-4.122-2.9-3.142 0-6.338 4.12-9.586 12.36-3.25 8.24-7.073 23.17-11.47 44.79zm107.082 61.23c-9.74 8.95-18.28 15.56-25.62 19.816-7.342 4.26-14.34 6.395-21 6.395-7.665 0-13.842-2.97-18.53-8.91-4.692-5.94-7.037-13.93-7.037-23.95 0-15.04 3.258-33.08 9.775-54.14 6.516-21.05 14.43-40.46 23.74-58.22l27.285-10.1c.86-.28 1.504-.43 1.934-.43 2.07 0 3.77 1.53 5.1 4.57 1.32 3.05 1.98 7.15 1.98 12.3 0 14.61-3.37 28.76-10.1 42.44-6.73 13.68-17.26 28.29-31.58 43.83-.58 7.45-.86 12.57-.86 15.36 0 6.23 1.14 11.17 3.44 14.83 2.29 3.65 5.33 5.48 9.13 5.48 3.87 0 7.98-1.4 12.35-4.19 4.36-2.79 11.02-8.59 19.98-17.4v12.356zM450.1 112.63c9.093-10.11 16.47-21.442 22.128-33.994 5.656-12.55 8.486-23.342 8.486-32.38 0-2.653-.395-4.786-1.182-6.4-.79-1.614-1.79-2.42-3.008-2.42-2.65 0-6.5 6.597-11.548 19.793-5.048 13.19-10.008 31.66-14.877 55.4zm121.493 42.003c-9.096 8.953-17.26 15.56-24.492 19.818-7.23 4.26-15.21 6.4-23.95 6.4-9.74 0-17.6-3.11-23.58-9.34-5.98-6.23-8.97-14.43-8.97-24.6 0-15.18 5.27-28.91 15.79-41.19 10.53-12.28 22.2-18.42 35.02-18.42 6.66 0 12 1.72 16.01 5.16 4.01 3.44 6.02 7.95 6.02 13.54 0 14.83-15.75 26.86-47.26 36.1 2.87 13.97 10.35 20.95 22.45 20.95 4.73 0 9.24-1.27 13.54-3.81 4.3-2.54 10.78-8.18 19.45-16.92v12.36zm-56.29-19.873c18.333-5.156 27.5-14.68 27.5-28.575 0-6.875-2.507-10.313-7.52-10.313-4.726 0-9.237 3.6-13.534 10.796-4.3 7.197-6.45 16.562-6.45 28.092zm118.165 19.873c-9.023 8.953-16.83 15.56-23.418 19.818-6.59 4.26-12.855 6.4-18.8 6.4-6.16 0-11.154-2.59-14.984-7.79-3.832-5.19-5.747-12.01-5.747-20.46 0-7.44 1.83-17.28 5.51-29.5l4.56-16.26-8.25.43 3.44-16.86 10.21-.43 10.08-33.52 28.69-5.89-11.1 37.36 15.17-.86-3.55 16.55-16.67 1.29-7.16 24.07c-2.49 8.37-3.73 15.02-3.73 19.97 0 3.37.84 6.11 2.52 8.23 1.682 2.12 3.85 3.17 6.51 3.17 3.653 0 7.28-1.16 10.86-3.49 3.59-2.32 8.86-7.18 15.82-14.55v12.35z" />
  <linearGradient id="a" x1="1603.924" x2="1698.034" y1="1483.083" y2="1483.083" gradientUnits="userSpaceOnUse"
    gradientTransform="rotate(9.6 9049.018 -4722.716)">
    <stop offset="0" stop-color="#89C442" />
    <stop offset="1" stop-color="#74B844" />
  </linearGradient>
  <path fill="url(#a)"
    d="M674.318 92.395c2.234 2.608 46.097 17.218 61.347 34.97 15.25 17.754 21.907 33.598 19.754 48.832-2.15 15.234-11.47 14.982-15.54 20.53-4.07 5.547-9.69 12.388-20.49 11.66-14.14-.948-28.72-8.014-39.25-32.54-10.53-24.527-9.72-47.567-8.88-60.35.84-12.78 3.04-23.102 3.04-23.102z" />
  <linearGradient id="b" x1="1606.047" x2="1687.254" y1="1478.166" y2="1478.166" gradientUnits="userSpaceOnUse"
    gradientTransform="rotate(9.6 1169.206 -709.023)">
    <stop offset="0" stop-color="#74B844" />
    <stop offset="1" stop-color="#4A9634" />
  </linearGradient>
  <path fill="url(#b)" d="M1239.667 1476.602l65.69 97.927-3.028 3.38" transform="translate(-567.983 -1376)" />
  <path fill="#3c3c3b" fill-rule="evenodd"
    d="M419.922 236.713l.618-4.337c17.52-9.335 39.344-12.934 57.105-21.945 5.328 2.4 7.697-1.06 13.38-.74 2.062 1.86-2.594 4.35 2.974 3.97 12.65 1.68 24.97-.68 37.41-1.74 13.12-1.12 26.15.13 39.02-.63 4.11-.24 10.44-5.93 15.48-3.1 2.28 4.13-7.44 4.49-4.83 9.05 25.76 6.06 90.19 31.68 101.21 3.81.15 1.7-1.93 5.06 1.11 4.59 21.72-9.72 58.63-30.71 65.13-36.21 7.14-6.04 16.66-5.85 26-8 16.82-3.87 34.77-7.81 49.33-16.29 9 6.25 27.84 9.36 37.91 7.18 10.51-2.28 26.82-19.73 35.55-25.9 3.43-2.42 8.45-7.13 12.14-4.46-2.48 1.7.44 6.68-2.6 5.82-1.59-3.04-4.76.47-7.07-.12-8.79 7.21-17.92 13.96-26.88 20.94-4.18 2.57 4.03 5.23-.87 6.07-23.14 4.6-58.38-6.92-72.968 9.07-23.115 7.91-44.98 9.92-67.76 22.2-13.09 7.06-29.108 19.9-42.734 26.65-2.31 1.15-5.693 1.55-8.423 3.23-3.32 2.04-4.136 4.6-6.937 5.204-6.98 1.503-21.4-2.14-30.48-3.46-30.28-4.4-62.61-16.746-91.184-18.31-11.3-.62-24.64 1.17-37.412 1.744-27.15 1.226-44.13 1.87-65.9 9.19-8.9 2.997-22.59 10.93-28.364 6.58z"
    clip-rule="evenodd" />
  <linearGradient id="c" x1="1280.966" x2="1438.704" y1="1562.831" y2="1562.831" gradientUnits="userSpaceOnUse"
    gradientTransform="rotate(161.46 940.413 -772.15)">
    <stop offset="0" stop-color="#C1EA71" />
    <stop offset="1" stop-color="#ACDA55" />
  </linearGradient>
  <path fill="url(#c)"
    d="M839.46 0c-3.05 4.944-72.6 40.807-93.475 74.472-20.873 33.665-26.828 60.172-19.26 85.09 7.566 24.914 22.03 23.792 30.275 32.008 8.246 8.22 19.432 18.193 37.3 14.166 23.395-5.275 45.94-20.89 57.155-64.65 11.214-43.762 3.86-82.083-.88-103.242C845.838 16.687 839.462 0 839.462 0z" />
  <linearGradient id="d" x1="1284.556" x2="1422.002" y1="1554.398" y2="1554.398" gradientUnits="userSpaceOnUse"
    gradientTransform="rotate(161.46 1112.102 -37.725)">
    <stop offset="0" stop-color="#ACDA55" />
    <stop offset="1" stop-color="#89C442" />
  </linearGradient>
  <path fill="url(#d)" d="M1406.26 1383.39l-84.338 180.893 4.95 4.97" transform="translate(-567.983 -1376)" />
  </g>
</svg>